<?xml version="1.0" encoding="UTF-8" standalone="no"?>
<!-- exceptions4c is an exception handling framework for C -->
<!-- Created with Inkscape (http://www.inkscape.org/) -->
<svg xmlns:dc="http://purl.org/dc/elements/1.1/" xmlns:cc="http://creativecommons.org/ns#" xmlns:rdf="http://www.w3.org/1999/02/22-rdf-syntax-ns#" xmlns:svg="http://www.w3.org/2000/svg" xmlns="http://www.w3.org/2000/svg" version="1.1" width="1157.7582" height="895.20441" id="sheep">
	<title id="sheep_title">sheep</title>
	<defs id="sheep_defs" />
	<metadata id="sheep_metadata">
		<rdf:RDF>
			<cc:Work rdf:about="">
				<dc:format>image/svg+xml</dc:format>
				<dc:type rdf:resource="http://purl.org/dc/dcmitype/StillImage" />
				<dc:title>exceptions4c</dc:title>
				<dc:creator>
					<cc:Agent>
						<dc:title>Guillermo Calvo</dc:title>
					</cc:Agent>
				</dc:creator>
				<dc:rights>
					<cc:Agent>
						<dc:title>Copyright 2012 Guillermo Calvo</dc:title>
					</cc:Agent>
				</dc:rights>
				<dc:identifier>sheep</dc:identifier>
				<cc:license rdf:resource="http://creativecommons.org/licenses/by-sa/3.0/" />
			</cc:Work>
			<cc:License rdf:about="http://creativecommons.org/licenses/by-sa/3.0/">
				<cc:permits rdf:resource="http://creativecommons.org/ns#Reproduction" />
				<cc:permits rdf:resource="http://creativecommons.org/ns#Distribution" />
				<cc:requires rdf:resource="http://creativecommons.org/ns#Notice" />
				<cc:requires rdf:resource="http://creativecommons.org/ns#Attribution" />
				<cc:permits rdf:resource="http://creativecommons.org/ns#DerivativeWorks" />
				<cc:requires rdf:resource="http://creativecommons.org/ns#ShareAlike" />
			</cc:License>
			<dc:source>http://code.google.com/p/exceptions4c/</dc:source>
		</rdf:RDF>
	</metadata>
	<g transform="translate(-1572.6594,374.32793)" id="exceptions4c">
		<path d="m 1875.9874,-374.24389 c -2.55,-0.475 -4.725,1.15 -6.5625,2.7 -4.2375,3.6875 -7.9875,7.9125 -11.4375,12.3375 -3.2375,4.3875 -8.6625,6.2 -12.375,10.0875 -3.3125,3.35 -6.8875,6.5 -9.75,10.275 -2.675,3.975 -4.025,8.65 -5.9625,13 -4.3875,0.4375 -8.8,0.4125 -13.2,0.0875 -0.2125,-6.8875 0.225,-13.9375 -1.875,-20.6125 -0.825,-3.025 -3.75,-4.625 -5.95,-6.5875 -2.8375,-2.0875 -5.525,-4.9875 -9.2625,-5.225 -0.7625,4.0625 -1.5625,8.225 -3.7875,11.775 -1.8875,3.4375 -5.1,5.7875 -8.1125,8.1625 -4.9,3.85 -8.8875,8.6625 -12.75,13.5125 -2.675,3.175 -3.7625,7.2625 -5.2375,11.05 -7.1125,2.9875 -14.675,4.675 -22.125,6.6 -7.05,1.8375 -14.4625,1.6375 -21.525,3.475 -5.4,1.425 -9.5625,5.3875 -14.2625,8.2 -4.6625,3.0375 -10.0125,4.825 -14.6875,7.85 -8.35,6.2125 -13.8875,15.25 -21.475,22.2625 -22.55,22.4375 -44.975,45.0125 -67.5375,67.45 -4.5625,4.6375 -8.425,9.9 -12.675,14.825 -6.9125,7.85 -12.85,16.55 -18.2,25.5375 -2.3375,4.9875 -5.9875,10.525 -4.0125,16.2375 2.2625,3.1625 5.1,5.925 8.175,8.2875 2.9,1.6625 6.275,2.2125 9.4375,3.13749 1.0125,3.65 0.4125,7.7875 2.65,11.025 2.0625,3.2375 4.2,6.625 7.4625,8.775 2.6,1.8125 5.9,1.7875 8.9,2.3125 1.325,1.75 2.55,3.575 3.675,5.45 4.7625,0.6375 9.5875,0.55 14.3625,0.425 6.075,0.3375 9.9375,-5.2 15.15,-7.35 7.675,-3.9625 16.5,-2.4875 24.775,-2.7 6.1625,0.2 12.6375,-1 18.4625,1.55 5.15,2.175 10.8,3.6375 15.0375,7.4625 3.5125,3.112499 7.8,5.712499 9.8875,10.099999 2.6,5.125 5.5375,10.25 6.5125,16 1.05,5.9875 1.3625,12.1375 3.2625,17.95 3.2625,10.5625 5.7625,21.3625 9.5625,31.7625 1.3375,3.65 2.425,7.45 2.3375,11.375 0,17.0999997 -0.175,34.2 0.025,51.3 1.575,14.9125 3.9,29.7375 5.3375,44.66251 1.3875,8.0875 3.15,16.1 4.5,24.200001 1.625,7.1125 2.15,14.525 4.825,21.3625 3.875,10.4125 6.75,21.1625 11.1375,31.375 3.525,8.1375 5.325,17.125 10.5875,24.425 4.2,6.25 7.8875,12.85 12.3125,18.9625 4.475,6.2875 9.5375,12.125 14.2375,18.25 3.4375,4.5 8.2375,7.5875 12.35,11.3875 2.9375,2.5 5.7375,5.225 9.05,7.2125 4.2,1.675 8.7625,2.05 13.1,3.175 14.4375,3.65 29.0125,6.725 43.4875,10.2 4.025,0.9875 8.2125,1.4125 12.1,2.9375 2.9,1.5375 5.3625,3.775 7.8,5.9375 4.35,4.025 9.0125,7.675 13.5875,11.425 5.05,3.975 7.7625,9.975 10.8625,15.425 2.1625,3.9875 4.875,8.025 4.7,12.7625 0.7875,9.25 -1.525,18.35 -1.3125,27.575 0.1,6.6875 -1.65,13.2625 -1.3,19.9625 -0.225,12.15 0.9375,24.3875 -0.9,36.45 -0.8625,7.6 0.475,15.3125 -0.95,22.875 -1.5,8.575 -2.9625,17.15 -4.25,25.7625 -0.3125,4.2125 -3.6,7.1875 -5.4625,10.7625 -2.3625,3.975 -3.7125,8.5375 -6.5375,12.2375 -5.7125,5.2 -14.525,6.9875 -18.225,14.3 -2.7125,5.1625 -6.65,9.7625 -8.3625,15.4 -0.65,6.875 -0.275,13.8375 -0.1625,20.75 4.675,3.275 10.7125,2.975 16.1375,2.7125 9.175,-0.825 16.8625,-6.3125 24.7375,-10.55 0.5125,-4.1625 -0.1625,-8.4875 0.85,-12.5625 2.975,-4.075 5.9375,-8.35 9.95,-11.4625 5.0375,-0.8125 10.375,-0.1125 15.15,-2.2125 2.5625,-1.525 4.6625,-3.7375 6.3875,-6.15 1.775,-2.375 1.5125,-5.475 1.8,-8.2625 0.175,-3.575 1.0875,-7.05 1.7625,-10.5375 1.35,-9.2625 1.7875,-18.6125 2.25,-27.9375 2.6125,-13.25 4.875,-26.575 7.675,-39.7875 4.3375,-21.1375 4.8875,-43.0125 11.3125,-63.7125 1.7375,-4.2625 4.5625,-7.9625 7.3125,-11.5875 7.475,-0.85 15.1,-0.375 22.25,2.0625 4.75,1.6625 10.575,1.85 13.875,6.1625 2.4125,3.025 5.4125,5.8 6.975,9.375 0.775,6.1125 -0.15,12.2875 0.325,18.425 0.6875,8.325 2,16.6 2.425,24.95 0,26.2625 -0.062,52.5375 0.025,78.8 -0.062,3.9625 0.3875,8.0125 -0.475,11.9375 -1.75,2.4125 -4.0375,4.3625 -6.0125,6.6125 -3.1625,3.4875 -5.7375,7.6 -9.6,10.4125 -3.9375,2.4 -8.9875,2.125 -12.875,4.5875 -3.85,5.3875 -6.3875,11.6 -8.4875,17.85 -1.775,5.35 -5.675,10.1625 -5.25,16.0875 0.1125,3.3625 -0.65,8.0125 3.1625,9.7 13.3375,1.975 27.675,-1.1625 38.275,-9.675 2.1,-4.0375 0.8125,-8.9 1.5125,-13.2625 3.7625,-3.0125 7.2625,-6.475 11.6125,-8.6375 4.475,-1.3 9.2375,-1.2 13.725,-2.425 3.0625,-1.85 5.5125,-4.575 7.6375,-7.4 2.1125,-2.7125 1.4875,-6.3125 1.85,-9.4875 -0.025,-5.15 4.0875,-9.0375 4.875,-13.95 0.2625,-4.975 -1.35,-9.825 -1.275,-14.8 0.012,-17.125 0.125,-34.2375 -0.038,-51.35 -0.625,-9.2875 6.2875,-16.9625 6.325,-26.1625 0.075,-12.525 -0.025,-25.0625 -0.05,-37.5875 0.025,-5.325 0.8,-10.775 3.15,-15.6 3.2,-4.7 7.6,-8.8625 13.1,-10.6625 10.9125,-3.975 21.825,-7.95 32.5125,-12.5 6.0625,-2.675 12.825,-2.65 19.075,-4.65 4.4125,-1.4 8.975,-2.2625 13.575,-2.6625 7.1125,-0.5375 14.1625,-1.725 21.2625,-2.4125 8.575,-0.475 16.725,-3.375 25.1,-5.05 7.275,-2.0375 14.8875,-1.4 22.3375,-1.475 7.825,-0.6 13.7,5.3375 20.3125,8.4375 8.3625,4.6375 18.1375,5.45 26.7,9.5625 9.6,4.35 19.125,8.9875 29.275,11.9625 5.6,1.9875 11.6,1.3125 17.4,1.3625 17.4375,-0.275 35.1125,1.15 52.275,-2.7 5.1,-1.175 10.05,-3.125 15.2875,-3.5125 4.4125,-0.075 8.825,0.675 13.0875,1.7625 3.1,1.825 4.775,5.2625 7.2375,7.8 4.5375,4.875 8.8875,10.1375 10.9875,16.575 3.4125,7.05 2.275,15 2.375,22.5625 -0.1375,7.0875 0.7375,14.35 -1.1875,21.2875 -3.0375,11.0875 -5.1,22.4625 -9.375,33.175 -2.5375,6.2625 -4.2125,12.8625 -7.325,18.8875 -4.8875,9.7125 -9.8125,19.4 -14.55,29.1875 -1.2625,2.3625 -2.275,5.0875 -4.5625,6.675 -4.6125,3.3875 -10.125,5.5 -14.325,9.4625 -2.4875,3.05 -4.1875,6.65 -6.3,9.975 -2.0375,3.55 -4.85,7.0375 -4.8625,11.35 -0.2,6.1625 -0.1125,12.3375 0.075,18.525 4.075,2.8625 9.4375,3.475 14.15,2.0125 7.425,-1.8875 13.8,-6.2875 20.475,-9.8375 0.5,-4.175 -0.1625,-8.4875 0.8375,-12.5625 2.9875,-4.075 5.95,-8.375 9.975,-11.475 5.025,-0.8125 10.3625,-0.1125 15.1375,-2.2125 2.55,-1.525 4.6625,-3.7375 6.3875,-6.1375 1.775,-2.3875 1.525,-5.4875 1.7875,-8.275 0.2375,-5.6625 2.1,-11.075 3.375,-16.55 0.9875,-4.2 2.1375,-8.3875 3.95,-12.3125 3.3875,-7.55 5.9,-15.475 9.65,-22.85 6.3,-12.475 12.4875,-25.0125 18.7875,-37.4875 3.9,-7.5875 6.825,-15.625 10.375,-23.375 1.6875,-3.975 3.825,-7.975 3.7875,-12.4125 0.05,-6.2625 0.125,-12.5375 -0.038,-18.8 -0.125,-5.4625 -4.7875,-9.5625 -5.0125,-15 -0.2375,-4.5 -0.45,-9.275 1.6625,-13.3875 2.425,-4.8375 4.425,-10.225 8.7375,-13.7375 4.6,-3.825 9.3375,-7.525 14.525,-10.5125 5.825,-3.425 11.875,-7.3375 18.85,-7.475 4.4125,-0.3125 8.8625,0.4 12.9125,2.2 9.2125,3.925 18.6875,7.175 28.05,10.7125 5.275,1.7 8.6875,6.275 12.525,9.975 3.6375,3.475 6.625,7.5375 10.0125,11.2375 5.375,5.475 10.3625,11.325 15.2,17.2625 3.875,5.7 7.925,11.275 11.8625,16.9375 3.9125,5.525 5.625,12.15 7.8,18.4625 1.0625,3.0625 1.7375,6.2625 1.7,9.525 -0.062,17.925 -0.075,35.8625 -0.025,53.8 -0.075,5.325 0.7,10.9375 -1.575,15.95 -3.575,8.4625 -6.575,17.2 -10.9375,25.3125 -3.15,5.875 -5.3,12.525 -10.2875,17.2 -3.8125,3.725 -6.6875,8.3 -10.625,11.9 -3.925,3.6375 -9.9125,2.9125 -14.275,5.675 -3.8375,5.4 -6.3875,11.6125 -8.4875,17.8625 -1.7875,5.3625 -5.6875,10.1625 -5.25,16.0875 0.1625,3.3125 -0.6875,8.125 3.1625,9.675 5.5125,1 11.2875,0.5375 16.5875,-1.275 5.9125,-1.925 11.9625,-4.2125 16.6875,-8.3875 2.1,-4.025 0.8125,-8.8875 1.5125,-13.25 3.7625,-3.0125 7.2625,-6.475 11.6125,-8.6375 4.475,-1.3 9.2375,-1.2 13.725,-2.425 2.825,-1.675 5.0625,-4.1625 7.125,-6.675 3.75,-4.2875 1.0625,-10.4875 3.525,-15.2875 10.4625,-20.5125 16.2625,-42.9125 22.4375,-64.975 3.9625,-15.7875 10.1875,-30.9 14.7625,-46.5 1.4,-5.3125 2.7125,-10.65 4.075,-15.9625 1.725,-6.525 1.3625,-13.35 1.1625,-20.025 -0.15,-4.3625 -2.25,-8.275 -4.0625,-12.125 -2.5875,-5.3625 -4.45,-11.1 -7.675,-16.125 -2.6,-4.0625 -7.1,-6.2375 -10.275,-9.7375 -2.8875,-5.1125 -3.2125,-11.275 -3.025,-17.0125 0,-2.6375 0.85,-5.425 3.0875,-7 11.875,-9.6 25.925,-15.825 39.075,-23.3875 2.775,-1.675 6.1375,-3.0875 7.525,-6.25 2.625,-5.6375 4.05,-11.7625 6.2,-17.5875 3.5375,-9.5 4.5375,-19.65 6.7875,-29.475 2,-8.8625 9.3375,-15.7625 10,-25.0125 1.35,-12.4125 2.7,-24.825 4.075,-37.225 3.1875,-15.3 6.525,-30.575001 8.85,-46.037501 1.225,-8.48751 3.55,-16.87501 3.3,-25.51251 -0.1375,-8.775 -0.062,-17.55 0,-26.3125 0.25,-8.1250003 -3.1375,-15.6625003 -5.5125,-23.2500003 -1.725,-5.4499997 -3.65,-10.8999997 -6.825,-15.6999997 -4.675,-7.0625 -8.8,-14.475 -13.4,-21.575 -4.9125,-8.325 -10.75,-16.05 -15.675,-24.35 -5.9375,-9.75 -12.8125,-18.85 -19.2375,-28.275 -14.025,-19.474999 -27.0625,-39.624989 -40.425,-59.562489 -3.5125,-5.1625 -6.575,-10.7375 -11.15,-15.075 -9.6125,-8.725 -16.3375,-20.7875 -28.275,-26.775 -7.775,-3.8625 -14.7125,-9.6375 -23.3125,-11.7 -8.6375,-2.4875 -17.1625,-5.3375 -25.7875,-7.875 -2.975,-0.875 -6.1125,-0.9 -9.2,-0.9 -12.5125,0.15 -25.0375,0.025 -37.5625,0.125 -5.425,0.1 -10.7375,-1.2875 -16.1625,-1.2875 -4.775,-0.0125 -9.5875,0.0875 -14.3375,-0.7125 -6.2625,-0.9875 -12.6625,-0.125 -18.925,-1.1 -6.325,-1.0375 -12.75,-0.6125 -19.1125,-0.875 -4.95,-0.225 -9.9125,-0.0375 -14.825,0.6125 -8.8,1.4375 -17.75,0.6125 -26.625,0.8625 -6.275,0.2375 -12.4125,-1.4 -18.6875,-1.35 -8.7625,0.0375 -17.525,0.075 -26.2875,0.05 -6.85,0.025 -13.7375,-0.4125 -20.525,0.7 -4.3875,0.675 -8.8375,0.4875 -13.275,0.6 -4.1625,0.0875 -8.2375,1.0625 -12.4,1.15 -5.1375,0.125 -10.3375,-0.2125 -15.3875,0.9375 -22.975,4.625 -46.425,7.4625 -68.675,15.0875 -5.6875,1.4875 -11.1875,4.175 -17.175,4.075 -7.5375,0 -15.075,-0.1 -22.6125,0.025 -3.6625,0.0875 -7.325,-0.475 -10.7625,-1.75 -6.875,-2.475 -14,-4.175 -20.875,-6.65 -8.5625,-3.325 -17.8625,-0.65 -26.7125,-2.0875 -7.1125,-1.3625 -14.35,-0.525 -21.525,-1.0125 -9.1375,-1.025 -18.2875,-1.7875 -27.45,-2.5 -2.625,-0.075 -4.8125,-1.65 -6.9375,-3.0125 -12.1375,-8.325 -24.4875,-16.3375 -36.6875,-24.5875 -9.275,-6.6625 -18.65,-13.2375 -28.6375,-18.8125 -7.925,-4.1 -15.6625,-8.55 -23.55,-12.75 -7.7125,-4.9 -16.5,-7.6125 -24.7125,-11.5375 -4.9625,-2.4 -10.0625,-4.6625 -15.5,-5.75 -6.7125,-1.4125 -13.375,-3.4875 -20.3,-3.425 -9.2,-0.125 -18.825,1.075 -27.5875,-2.4 -2.1875,-0.8375 -2.85,-3.2875 -3.95,-5.1125 2.8625,-3.875 7.525,-5.925 10.2625,-9.9 2.25,-3.2625 4.9,-6.45 5.975,-10.3 1.4375,-13.175 -0.625,-26.6125 -5.625,-38.8625 -2.45,-5.45 -5.7625,-10.425 -8.4625,-15.7375 z" id="sheep" style="fill:black" />
		<g transform="matrix(1.692003,0,0,1.692003,-2154.9525,-2080.9408)" id="text">
			<path d="m 2375.998,1205.5139 c 28.5333,0 57.1201,0 85.6535,0 0,7.1199 0,14.2934 0,21.4134 7.1199,0 14.2934,0 21.4133,0 0,14.2934 0,28.5333 0,42.8267 -28.5333,0 -57.1202,0 -85.6535,0 0,14.2934 0,28.5333 0,42.8267 14.2935,0 28.5333,0 42.8268,0 0,-7.1199 0,-14.2934 0,-21.4133 14.2934,0 28.5333,0 42.8267,0 0,7.1199 0,14.2934 0,21.4133 -7.1199,0 -14.2934,0 -21.4133,0 0,7.12 0,14.2935 0,21.4134 -28.5334,0 -57.1202,0 -85.6535,0 0,-7.1199 0,-14.2934 0,-21.4134 -7.12,0 -14.2935,0 -21.4134,0 0,-28.5333 0,-57.1201 0,-85.6534 7.1199,0 14.2934,0 21.4134,0 0,-7.12 0,-14.2935 0,-21.4134 m 21.4133,21.4134 c 0,7.1199 0,14.2934 0,21.4133 14.2935,0 28.5333,0 42.8268,0 0,-7.1199 0,-14.2934 0,-21.4133 -14.2935,0 -28.5333,0 -42.8268,0 z" id="text1" style="fill:white" />
			<path d="m 2611.5471,1162.6876 c 14.2399,0 28.5333,0 42.8267,0 0,57.1202 0,114.1868 0,171.307 -14.2934,0 -28.5868,0 -42.8267,0 -0.054,-14.2934 -0.054,-28.5333 0,-42.8267 -28.5869,0 -57.1202,0 -85.6535,0 -0.054,-14.2935 -0.054,-28.5333 0,-42.8268 7.1199,0 14.2399,0 21.4133,0 0,-7.1199 0,-14.2934 0,-21.4133 7.12,0 14.2399,0 21.4134,0 0,-7.12 0,-14.2935 0,-21.4134 7.12,0 14.2399,0 21.4134,0 0,-7.12 0,-14.2934 0,-21.4134 7.1199,0 14.2399,0 21.4134,0 -0.054,-7.1199 0,-14.2934 0,-21.4134 m -21.4134,64.2402 c 0,7.1199 0,14.2934 0,21.4133 -7.1735,0 -14.2934,0 -21.4134,0 0,7.12 0,14.2935 0,21.4134 14.2399,0 28.5333,0 42.8268,0 -0.054,-14.2934 -0.054,-28.5333 0,-42.8267 -7.1735,0 -14.2935,0 -21.4134,0 z" id="text2" style="fill:white" />
			<path d="m 2718.6139,1205.5144 c 28.5334,0 57.0667,0 85.6535,0 -0.053,7.1199 -0.053,14.2934 0,21.4134 7.12,0 14.2399,0 21.4134,0 -0.053,7.1199 -0.053,14.2934 0,21.4133 -14.2934,0 -28.5868,0 -42.8267,0 -0.054,-7.1199 -0.054,-14.2934 0,-21.4133 -14.2935,0 -28.5869,0 -42.8268,0 -0.053,28.5333 -0.053,57.1201 0,85.6534 14.2399,0 28.5333,0 42.8268,0 -0.054,-7.1199 -0.054,-14.2934 0,-21.4133 14.2399,0 28.5333,0 42.8267,0 -0.053,7.1199 -0.053,14.2934 0,21.4133 -7.1735,0 -14.2934,0 -21.4134,0 -0.053,7.12 -0.053,14.2935 0,21.4134 -28.5868,0 -57.1201,0 -85.6535,0 -0.053,-7.1199 -0.053,-14.2934 0,-21.4134 -7.1734,0 -14.2934,0 -21.4133,0 -0.054,-28.5333 -0.054,-57.1201 0,-85.6534 7.1199,0 14.2399,0 21.4133,0 -0.053,-7.12 -0.053,-14.2935 0,-21.4134 z" id="text3" style="fill:white" />
		</g>
	</g>
</svg>
