<?xml version="1.0" encoding="UTF-8" standalone="no"?>
<svg xmlns="http://www.w3.org/2000/svg" viewBox="0 0 269 67.2" width="640" height="160">
  <style>@media (prefers-color-scheme: dark) { .themed { fill: #888; } }</style>
  <g stroke="#222" stroke-width="3">
    <path fill="#ecb" d="m52.85 17.38-1.68 13.86c15.54.42 15.21-6.61 14.07-7.62s-3.57 3.84-12.39-6.24zm-15.96 27.3c0 7.56-1.68 16.8 3.36 16.8 4.62 0 3.36-8.82 3.36-16.8zm10.5 1.68c0 7.56-1.68 16.8 3.36 16.8s3.78-9.24 3.78-16.8zm-35.7 0c0 7.56-1.26 16.8 3.36 16.8 5.46 0 2.52-8.82 2.52-16.8zm11.34 2.1c0 7.98-1.68 17.22 3.36 17.22s2.94-9.24 2.94-17.22z"/>
    <path fill="#444" d="M10 19.48c-10.92-6.3-1.68-16.8 4.2-11.76.84-10.5 17.22-5.46 19.32-.42 3.36-1.26 5.04.42 5.88 2.94 2.52-2.1 6.72-.42 8.4 2.52 5.46-1.68 10.92 6.72 8.82 13.02 5.88 5.04 6.72 15.96.02 18.48 1.32 6.43-8.4 9.24-14.7 6.72-1.26 5.46-7.98 5.46-10.5 2.52-6.72 5.04-14.7 1.68-15.12-3.36C5.82 53.5-1.74 41.74 3.3 35.02c-4.2-7.56 4.62-15.96 6.72-15.54z"/>
    <path fill="#ecb" d="M15.04 15.28c2.52 5.04 10.92 5.88 14.7.84 1.26 3.78 4.2 4.2 6.72 2.1 2.52 3.78 5.46 0 6.3 2.1 2.1 2.94-1.68 5.46-4.2 5.88s-5.88-1.26-7.14 0c-1.68 1.68-2.1 7.14-2.94 11.34-.84 3.78-5.46 6.72-11.76 6.3-5.88-.84-11.34-5.88-7.98-12.6 2.94-6.72 1.68-8.4.42-7.98-6.72 3.36-8.63-4.6-7.14-5.88 1.49-1.28 5.46 2.52 13.02-2.1z"/>
  </g>
  <path d="M14.49 26.32c.53.92 2.5 1.25 3.15.42.92-1.16.86-4.15-1.57-4.15-1.86 0-2.25 2.56-1.58 3.73zm7.35 1.05c.43 1.2 2.78 1.95 3.67 1.05 1.1-1.1 1-4.1-1.3-4.46-2.13-.34-2.84 2.1-2.37 3.41zm-5.78 6.83c-.78 2.28-.95 1.95-1.57 1.57-.87-.53-2.75-1.92-3.27-.24-.42 1.58 2.75 4.02 5.37 2.44 2.33 2.68 6.54 1.02 6.54-1.08 0-1.05-2.54-.43-3.39.03-.9.49-1.57-.42-1.57-2.62 1.57-.42 4.41-2.11 3.67-3.68-.6-1.27-3.15 0-4.2.42-1.57-1.05-3.48-2.51-4.4-1.3-1.06 1.41 1.77 4.45 2.83 4.45z"/>
  <path class="themed" d="M238.6 20.8h-.3c-1.3.6-1.6 2.1-2.1 3.3-1 1.4-1.1 3.2-1.7 4.8-.6 1-.7 2.2-.6 3.3.3 1 0 2.1.3 3.1.8.7 2 .3 2.9.8 1.4.2 3-.5 4.3.4.3 1.3.7 2.7.7 4 0 1-.2 2.2.6 3 .6.7 1.6.3 2.4.3.9 0 2-.6 1.8-1.7.2-1.3 0-2.7.2-4 0-1 .7-1.8 1.8-1.8.9 0 2.1.1 2.5-.9.2-1.2.1-2.5-.6-3.5-.7-1.1-1.9-.4-2.8-.6-1-.6-1-1.8-1-2.8 0-1 .4-2.2-.6-2.7-.8 0-1.6-.5-2.5-.3-1.2.2-1.3 1.5-1.2 2.5 0 .9.3 2.7-1 2.4-1 0-2.3.4-2.9-.6.7-1.8 1.5-3.5 2-5.3.2-1 1.1-2.2 0-2.8-.7-.3-1.5-.9-2.2-.9zm-58.4.2c-.2 0-.5 0-.7.2-.5.5-1.5.7-1.6 1.4-.2.6-.3 1.2-.2 1.7v1.8c0 .7 1 .9 1.5.9.5.4 1.1.3 1.7.4.8 0 1.6-.5 2-1.2.5-.5.8-1.3.6-2 0-.2 0-.5-.2-.8-.1-.5-.2-1-.5-1.5-.5-.1-.8-.6-1.2-.8h-1.4zm-11 1.4c-.4 0-.8 0-1 .3-.6 1.2.6 3-.7 3.9-1.2.8-3.7-.1-3.6 2 .4 1-.8 4 1.2 3.2 2-.4 1.1 2.3 1 3.4.4 1.8-.2 3.9.9 5.5.7 1.3 2.2 1.4 3.4 1.9 2 .6 3.9-1 4.4-2.8-.3-1-.7-2.4-1.8-2.4-1.4.9-2.9-1-2.5-2.3a7 7 0 0 1 1-3.5c1.1-.6 3.2 0 3-1.9.5-1.6-.6-2.7-2.1-3-1.4-1 .4-2.8-.4-4l-2.8-.3zm57 2.5a5 5 0 0 0-1.3.2c-1.6.2-3 1.4-3.8 2.8-.9 1.5-1 3.4 0 4.8.5 1.3 1.6 1.9 2.7 2.3 1 .5 2.2 1.4 2 2.7-.4 1.6-2.5.8-3.4.2-1.3.1-1.6 2-1.3 3 .6 1 1.7 1.7 2.8 1.8 1.2 0 2.4 0 3.6-.4 1.4-1 2.7-2.5 2.9-4.3-.1-1.4 0-3-1-4.2-1.2-1.2-4-1.4-4-3.3 0-1.5 1.8-1.6 2.8-.8 1.1 1.4 2.4.1 2.8-1.1 0-1.1-.8-2-1.7-2.5a4.2 4.2 0 0 0-3-1.2zm-142.6.3c-1.3.9-3.1.6-4 2-.6 1.3-2 1.8-2.5 3.2-.5 1.3-.5 2.6-.6 3.9 0 1.2 0 2.5.6 3.6a3.8 3.8 0 0 0 2.4 2.7c1.4 1.4 3.5 1.8 5.4 1.7 1.3-.2 2.8-.6 3.7-1.6.5-1.2-.6-2.5-1.4-3.3-1.5.3-3.2.6-4.8.1-1.2-.3-2.4-3-.3-2.4 2.3-.2 4.7 0 7-.2 1.6-.3 1.7-2.3 1.8-3.6.4-2.1-1.3-3.8-2.8-5-1.3-1.1-3-.7-4.5-1zm52.5 0c-1.4.9-3.4.6-4.2 2.3-1 1.4-2.8 2.5-2.6 4.5a9.7 9.7 0 0 0 1 7.4c1 1 2.3 1.7 3.6 2.5 1.9.6 4 .7 5.7-.2 1.5-.3 2.2-1.9 1.1-3-.6-2.2-2.6-.7-4-1-1.5.2-3-.5-3.3-2 0-1.1 2.1-.4 3-.6 1.8-.1 3.5 0 5.2-.2 1.6-.3 1.7-2.3 1.8-3.6.4-2.1-1.3-3.8-2.8-5-1.3-1.1-3-.7-4.5-1zm-13.8.5h-.3c-1.6.3-3.2-.3-4.6.5-1.2.6-2.6.7-3.3 2-.8.9-.6 2.1-1.3 3.1.3 1 0 2 0 3.2-.3 1.5 0 3.1 1 4.4 1 1.3 2.4 2.7 4.1 3 1.3 0 2.6.3 4 .1 1.3 0 2.5-.8 3.3-1.9.4-1.1-.7-2.9-1.6-3.4l-4 .4c-1.8-.4-3-2.5-1.9-4 .6-1 1.5-2.2 2.8-2 1.2-1 2.4.9 3.5.2 1-.3 1.6-2 2.1-3 .1-.6-.4-1.2-1-1.6-1 0-1.8-1-2.8-1zm141.8 0h-.3c-1.6.3-3.2-.3-4.6.5-1.2.6-2.6.7-3.3 2-.8.9-.6 2.1-1.2 3.1.2 1-.1 2-.1 3.2-.3 1.5 0 3.1 1 4.4 1 1.3 2.4 2.7 4.1 3 1.3 0 2.6.3 4 .1 1.3 0 2.5-.8 3.3-1.9.4-1.1-.7-2.9-1.6-3.4l-4 .4c-1.8-.4-3-2.5-1.9-4 .6-1 1.5-2.2 2.8-2 1.2-1 2.4.9 3.5.2 1-.3 1.6-2 2.1-3 .1-.6-.4-1.2-1-1.6-1 0-1.8-1-2.8-1zm-110.2.1c-1.7.2-3.4.7-4.6 1.9a16.3 16.3 0 0 0-2.6 5.8c-.4 1.9-.1 3.8 0 5.6-.4 1.6-.2 3.3-.4 5-.4 2 1.7 2.3 3.3 2.3 2.3.7 2-2.2 2-3.6-.4-1.5-.2-3.8 1.9-2.7 1.4 0 2.9 0 4-1.1a6 6 0 0 0 3.5-3.8c.3-1.5 0-3.1 0-4.7-.4-1.7-1.9-2.9-3.2-3.9-1.2-.4-2.6-.6-4-.8zm38.4.1h-.3c-1.2.4-2.8.8-3 2.3a9.6 9.6 0 0 0-2 3.7c-.6 1.8-.9 4 0 5.7.5 1.1 1.3 2 2.3 2.7.9 1 2.1 1.4 3.4 1.4a6 6 0 0 0 5-2c1.2-.5 2.4-1.2 2.7-2.6.9-1.1.8-2.6.9-4a9.2 9.2 0 0 0-2.2-4.5c-1-.6-1.4-2-2.7-2.1-1.3-.8-2.7-.4-4.1-.6zm-86.2 0c-1 0-1 1.5-1.7 1.9-.3.9-1.2 1-1.7 1.7-.4 1-1.5.5-1.9-.2-.7-.6-1.2-1.4-1.9-2.1-.4-.8-1.5-1-2.2-.7-.9.4-2 .8-2.2 1.8-.6.5-.8 1.7.3 2 .7.6 1 1.5 2 2 .6.5 1.9 1 1.7 2a14 14 0 0 0-1.6 2c-.5 1.1-1.5 1.9-2 3-.3.7 0 1.5.6 2 .5.5.6 1.4 1.3 1.6 1 .1 1.8-.9 2.5-1.6.7-.8 1.5-1.5 2-2.5.3-.9 1-.3 1.4.3.6.8 1.4 1.4 2.2 2 .7.5 1.3 1.2 2.1 1.3 1-.2 1.7-1 2.1-1.8.6-.7.3-1.6-.3-2.3l-1.8-2c-.5-.7-1.2-1.4-1.3-2.2.2-1 1.6-1.4 2-2.4.5-1 1.8-1.6 2-2.8l-.1-.1c-.3-.6-.8-1-1.4-1.2a2.4 2.4 0 0 0-2.1-1.6zm102.6 1.2c-1.6 0-2.7 1.5-3.4 2.9-1.4 2.3-.7 5.1-1 7.7 0 1-.3 2.3.3 3.4 1 .5 2.8.7 3.8-.1.8-1 .3-2.4.5-3.5.2-1.4-.3-2.7.2-4 .5-1.3 2-1.5 2.8-.5a6.9 6.9 0 0 1 1.3 3.9c.6 1.2-.5 3 .9 3.8 1 .4 2.2.1 3.2-.2.4-1 0-2.2.2-3.3 0-1.1 0-2.4-.4-3.5-.5-1.1-.3-2.6-1.6-3.3-1-.8-1.8-2-3.1-2.5-1-.6-2.4-.6-3.5-.8h-.2zM85.3 28.6c1.2.3 1.7 1.9 1.3 3-1.2.7-2.6-.5-4 0-1.5.4-2-1.2-.7-2 1-.8 2.3-.6 3.4-1zm52.5 0c1.2.3 1.7 1.9 1.3 3-1.2.7-2.6-.5-4 0-1.4.4-2-1.2-.7-2 1-.8 2.3-.6 3.4-1zm16.4 1.9c2.1.3 3.2 3 2 4.7-.5 1.5-2.8 1.5-3.8.4-.6-1.4-1-3.2.1-4.4.4-.6 1.2-.6 1.8-.7zm26 0c-.6.2-2 0-2 1l-.1 2.9c-.3 1-.2 2.2-.2 3.3-.2 1 .2 1.9.1 2.8-.5 1 .3 1.5 1 2 .8.3 1.6.7 2.5.6 1 .2 1.3-1 1-1.8.7-1.2.3-2.7.4-4 .2-1 .6-2 .2-2.9.2-.7.2-1.6.3-2.4 0-.9-.3-1-1.1-.7-.5-.7-1.3-.5-2-.7zm13 .2h.3c1.2.2 2.6.7 2.8 2 .6 1.3 0 2.5-1 3.3-1 1-2.5.8-3.6.5-.8-.8-1.3-2.3-.7-3.4.6-.9 1-2.4 2.3-2.4z"/>
</svg>