<?xml version="1.0" encoding="UTF-8" standalone="no"?>
<svg xmlns="http://www.w3.org/2000/svg" viewBox="0 0 67.24 67.24" width="160" height="160">
  <g stroke="#222" stroke-width="3">
    <path fill="#ecb" d="m52.85 17.38-1.68 13.86c15.54.42 15.21-6.61 14.07-7.62s-3.57 3.84-12.39-6.24zm-15.96 27.3c0 7.56-1.68 16.8 3.36 16.8 4.62 0 3.36-8.82 3.36-16.8zm10.5 1.68c0 7.56-1.68 16.8 3.36 16.8s3.78-9.24 3.78-16.8zm-35.7 0c0 7.56-1.26 16.8 3.36 16.8 5.46 0 2.52-8.82 2.52-16.8zm11.34 2.1c0 7.98-1.68 17.22 3.36 17.22s2.94-9.24 2.94-17.22z"/>
    <path fill="#444" d="M10 19.48c-10.92-6.3-1.68-16.8 4.2-11.76.84-10.5 17.22-5.46 19.32-.42 3.36-1.26 5.04.42 5.88 2.94 2.52-2.1 6.72-.42 8.4 2.52 5.46-1.68 10.92 6.72 8.82 13.02 5.88 5.04 6.72 15.96.02 18.48 1.32 6.43-8.4 9.24-14.7 6.72-1.26 5.46-7.98 5.46-10.5 2.52-6.72 5.04-14.7 1.68-15.12-3.36C5.82 53.5-1.74 41.74 3.3 35.02c-4.2-7.56 4.62-15.96 6.72-15.54z"/>
    <path fill="#ecb" d="M15.04 15.28c2.52 5.04 10.92 5.88 14.7.84 1.26 3.78 4.2 4.2 6.72 2.1 2.52 3.78 5.46 0 6.3 2.1 2.1 2.94-1.68 5.46-4.2 5.88s-5.88-1.26-7.14 0c-1.68 1.68-2.1 7.14-2.94 11.34-.84 3.78-5.46 6.72-11.76 6.3-5.88-.84-11.34-5.88-7.98-12.6 2.94-6.72 1.68-8.4.42-7.98-6.72 3.36-8.63-4.6-7.14-5.88 1.49-1.28 5.46 2.52 13.02-2.1z"/>
  </g>
  <path d="M14.49 26.32c.53.92 2.5 1.25 3.15.42.92-1.16.86-4.15-1.57-4.15-1.86 0-2.25 2.56-1.58 3.73zm7.35 1.05c.43 1.2 2.78 1.95 3.67 1.05 1.1-1.1 1-4.1-1.3-4.46-2.13-.34-2.84 2.1-2.37 3.41zm-5.78 6.83c-.78 2.28-.95 1.95-1.57 1.57-.87-.53-2.75-1.92-3.27-.24-.42 1.58 2.75 4.02 5.37 2.44 2.33 2.68 6.54 1.02 6.54-1.08 0-1.05-2.54-.43-3.39.03-.9.49-1.57-.42-1.57-2.62 1.57-.42 4.41-2.11 3.67-3.68-.6-1.27-3.15 0-4.2.42-1.57-1.05-3.48-2.51-4.4-1.3-1.06 1.41 1.77 4.45 2.83 4.45z"/>
</svg>